<?xml version="1.0" encoding="UTF-8" standalone="no"?>
<svg xmlns="http://www.w3.org/2000/svg" width="32" height="32">
  <path stroke="#676767" stroke-linecap="round" stroke-width=".50581741" d="M28.861486 16.014721c0 6.864728-5.564961 12.42969-12.42969 12.42969-6.8647276 0-12.4296896-5.564962-12.4296896-12.42969 0-6.8647294 5.564962-12.429691 12.4296896-12.429691 6.864729 0 12.42969 5.5649616 12.42969 12.429691h0z" overflow="visible" style="marker:none"/>
  <path fill="#fff" d="M7.1660534 20.383342v-8.376009h6.3948476v1.416951H8.9074294v1.856891h4.3299046v1.411238H8.9074294v2.279691h4.8181966v1.411238H7.1660534zm9.2716466 0-2.059059-8.376009h1.782556l1.300149 5.753507 1.57665-5.753507h2.070825l1.511937 5.850637 1.323681-5.850637h1.753141l-2.094357 8.376009h-1.847269l-1.717844-6.26201-1.711959 6.26201H16.4377z" font-family="FreeSans" font-size="11.87358379" font-weight="700" style="text-align:center;line-height:125%" text-anchor="middle"/>
</svg>