<?xml version="1.0" encoding="UTF-8" standalone="no"?>
<svg xmlns="http://www.w3.org/2000/svg" width="32" height="32">
  <path fill="#066" stroke="#676767" stroke-linecap="round" stroke-width=".50581741" d="M28.950789 15.836113c0 6.864728-5.56496 12.42969-12.42969 12.42969-6.8647296 0-12.4296896-5.564962-12.4296896-12.42969 0-6.8647288 5.56496-12.4296894 12.4296896-12.4296894 6.86473 0 12.42969 5.5649606 12.42969 12.4296894h0z" overflow="visible" style="marker:none"/>
  <path fill="#fff" d="M9.2585694 20.204736v-8.307464h1.7413796v6.896223h4.32992v1.411241H9.2585694zm12.8367896-3.07959 1.68844.519931c-.25887.914166-.68931 1.593122-1.29133 2.036871-.60204.443751-1.36586.665625-2.29145.665625-1.14523 0-2.08652-.379949-2.82386-1.139848-.73734-.759896-1.10601-1.798804-1.10601-3.116727 0-1.394094.37064-2.476806 1.1119-3.248137.74125-.771318 1.71588-1.156981 2.92387-1.156989 1.05502.000008 1.91198.302825 2.57089.908449.39219.358056.68634.872273.88244 1.542652l-1.72372.399947c-.10198-.434221-.31475-.777033-.63831-1.028434-.32357-.251388-.71676-.377085-1.17955-.377093-.63929.000008-1.15798.222834-1.55606.668483-.39809.44566-.59713 1.167468-.59713 2.165424 0 1.05891.1961 1.813095.58831 2.262557.39219.449465.90206.674197 1.52959.674195.46279.000002.86087-.142837 1.19425-.428514.33336-.285674.57261-.735138.71773-1.348392z" font-family="FreeSans" font-size="11.87360668" font-weight="700" style="text-align:center;line-height:125%" text-anchor="middle"/>
</svg>