<?xml version="1.0" encoding="UTF-8" standalone="no"?>
<svg xmlns="http://www.w3.org/2000/svg" width="32" height="32">
  <path fill="#c90" stroke="#676767" stroke-linecap="round" stroke-width=".50581741" d="M28.950799 16.104024c0 6.864728-5.5649 12.42969-12.4297 12.42969-6.8646999 0-12.4296999-5.564962-12.4296999-12.42969 0-6.8647294 5.565-12.429691 12.4296999-12.429691 6.8648 0 12.4297 5.5649616 12.4297 12.429691h0z" overflow="visible" style="marker:none"/>
  <path fill="#ffc" d="m11.705899 20.472653-3.0826999-8.376016h1.8884999l2.1826 6.199166 2.112-6.199166h1.8473l-3.0886 8.376016h-1.8591zm5.836-8.376016h1.7414v4.536532c0 .719907.0215 1.18651.0647 1.399812.0745.342814.252.618014.5324.825603.2804.207593.6638.311388 1.1501.311387.4942.000001.8668-.098081 1.1178-.294246.251-.196163.402-.437082.453-.72276.051-.285673.0765-.759895.0765-1.422666v-4.633662h1.7414v4.399408c0 1.005581-.0471 1.715961-.1412 2.131142-.0942.415184-.2677.765612-.5207 1.051287-.253.285676-.5912.513265-1.0148.682766-.4236.1695-.9766.25425-1.659.25425-.8236 0-1.4482-.092367-1.8738-.277105-.4255-.184737-.7618-.424704-1.0089-.719903-.2471-.295197-.4099-.60468-.4883-.928447-.1137-.479932-.1706-1.188409-.1706-2.125428v-4.46797z" font-family="FreeSans" font-size="11.87359333" font-weight="700" style="text-align:center;line-height:125%" text-anchor="middle"/>
</svg>