<?xml version="1.0" encoding="UTF-8" standalone="no"?>
<svg xmlns="http://www.w3.org/2000/svg" width="32" height="32">
  <path fill="#c6c6c6" stroke="#676767" stroke-linecap="round" stroke-width=".50581741" d="M28.325667 15.210991c0 6.864727-5.56496 12.42969-12.42969 12.42969-6.8647299 0-12.4296909-5.564963-12.4296909-12.42969 0-6.8647281 5.564961-12.4296904 12.4296909-12.4296904 6.86473 0 12.42969 5.5649623 12.42969 12.4296904h0z" overflow="visible" style="marker:none"/>
  <path fill="#fff" d="M10.403927 12.653816v5.383795h.70086c.79904.000002 1.40847-.230479 1.82832-.691442.42321-.460959.63483-1.130731.63483-2.009319 0-.874641-.20992-1.540473-.62975-1.997501-.41984-.457015-1.03098-.685525-1.8334-.685533h-.70086m-1.9552799-1.71974h2.0619299c1.15116.000009 2.00777.096534 2.56981.289578.56542.189121 1.04958.512187 1.45249.969201.3555.397932.61959.856923.79227 1.376975.17266.520065.25901 1.109071.25902 1.76702-.00001.665837-.08636 1.260752-.25902 1.784748-.17268.520061-.43677.979052-.79227 1.376975-.4063.457022-.89385.782059-1.46265.975111-.56882.189112-1.42203.283669-2.55965.283669H8.4486471v-8.823277m10.5890099 1.71974v5.383795h.70084c.79904.000002 1.40848-.230479 1.82832-.691442.42321-.460959.63483-1.130731.63483-2.009319 0-.874641-.20992-1.540473-.62975-1.997501-.41984-.457015-1.03098-.685525-1.8334-.685533h-.70084m-1.95529-1.71974h2.06193c1.15117.000009 2.00776.096534 2.5698.289578.56543.189121 1.04958.512187 1.45249.969201.3555.397932.61959.856923.79228 1.376975.17267.520065.259 1.109071.25901 1.76702-.00001.665837-.08634 1.260752-.25901 1.784748-.17269.520061-.43678.979052-.79228 1.376975-.40629.457022-.89384.782059-1.46264.975111-.56882.189112-1.42204.283669-2.55965.283669h-2.06193v-8.823277" font-family="FreeSans" font-size="12.28142357" font-weight="700" style="text-align:center;line-height:125%" text-anchor="middle"/>
</svg>