<?xml version="1.0" encoding="UTF-8" standalone="no"?>
<svg xmlns="http://www.w3.org/2000/svg" width="32" height="32">
  <path fill="#c33" stroke="#676767" stroke-linecap="round" stroke-width=".50581741" d="M28.41497 15.836114c0 6.864728-5.564961 12.42969-12.42969 12.42969-6.8647279 0-12.4296899-5.564962-12.4296899-12.42969 0-6.864729 5.564962-12.429691 12.4296899-12.429691 6.864729 0 12.42969 5.564962 12.42969 12.429691h0z" overflow="visible" style="marker:none"/>
  <path fill="#fcc" d="m13.42326 17.12516 1.688428.51993c-.258861.914163-.689302 1.593118-1.291324 2.036866-.602036.44375-1.365848.665624-2.291438.665624-1.145232 0-2.0865149-.379948-2.8238519-1.139845-.737339-.759895-1.106009-1.798802-1.106009-3.116722 0-1.394091.37063-2.476801 1.111893-3.248132.741258-.771315 1.7158779-1.156977 2.9238619-1.156986 1.055017.000009 1.911977.302825 2.570882.908448.392195.358055.686345.872271.882453 1.542649l-1.723725.399946c-.101979-.434221-.314749-.777031-.638308-1.028432-.323572-.251387-.716754-.377085-1.179547-.377092-.639293.000007-1.157979.222834-1.5560599.668481-.398087.44566-.597129 1.167466-.597127 2.165421-.000002 1.058908.196098 1.81309.588303 2.262552.3921969.449464.9020599.674196 1.5295859.674194.462793.000002.860877-.142837 1.194254-.428513.333365-.285674.572608-.735137.717729-1.348389zm3.194482 3.079583v-8.37601h3.665124c.921669.000008 1.591353.075237 2.009053.225684.417688.150463.75204.418046 1.003056.802748.251002.384717.376506.824657.376514 1.319822-.000008.628492-.190225 1.147469-.570653 1.556932-.380443.409472-.949135.667533-1.706077.774182.376507.213307.687326.447561.932459.702761.245119.255207.575548.708478.99129 1.359817l1.053061 1.634064h-2.082591l-1.258968-1.822611c-.447114-.651338-.753031-1.061758-.917751-1.231262-.164729-.169498-.339259-.285672-.523589-.348524-.184339-.062845-.476528-.094269-.876571-.094273h-.352982v3.49667h-1.741375zm1.741375-4.833632H19.6475c.835384.000004 1.357012-.034276 1.564885-.102843.20786-.068558.370625-.186637.48829-.354238.117655-.167591.176485-.377086.176491-.628487-.000006-.28186-.077466-.509448-.232379-.682765-.154925-.173303-.373577-.282811-.655957-.328526-.141199-.019038-.564776-.028561-1.270734-.028568h-1.358979v2.125427z" font-family="FreeSans" font-size="11.87358379" font-weight="700" style="text-align:center;line-height:125%" text-anchor="middle"/>
</svg>