<?xml version="1.0" encoding="UTF-8" standalone="no"?>
<svg xmlns="http://www.w3.org/2000/svg" width="32" height="32">
  <path stroke="#676767" stroke-linecap="round" stroke-width=".505817" d="M28.50415 16.014458c0 6.864728-5.564961 12.429689-12.42969 12.429689-6.8647277 0-12.4296896-5.564961-12.4296896-12.429689 0-6.8647294 5.5649619-12.4296917 12.4296896-12.4296917 6.864729 0 12.42969 5.5649623 12.42969 12.4296917z" overflow="visible" style="marker:none"/>
  <path fill="#c33" d="M8.6580527 20.472364v-8.376012h6.3948493v1.416951h-4.653473v1.856892h4.329906v1.411239h-4.329906v2.279692h4.818197v1.411238zm7.1714083 0 2.947397-4.370838-2.670894-4.005174h2.035527l1.72961 2.691065 1.694312-2.691065h2.017878l-2.68266 4.068022 2.947396 4.30799h-2.10024l-1.911984-2.896751-1.917867 2.896751z" font-family="FreeSans" font-size="11.8736" font-weight="700" style="line-height:125%;text-align:center" text-anchor="middle"/>
</svg>